<svg xmlns="http://www.w3.org/2000/svg" width="72.159" height="57.243" viewBox="0 0 72.159 57.243"><g transform="translate(-1003.341 1786.412) rotate(90)"><g transform="translate(-1772.766 -1073)"><path d="M44.569,67.75,61.959,42.866a4.411,4.411,0,0,0-3.605-6.928H48.386V5.681A3.168,3.168,0,0,0,45.2,2.5H36.722A3.168,3.168,0,0,0,33.54,5.681V35.938H23.573a4.411,4.411,0,0,0-3.605,6.928L37.358,67.75A4.359,4.359,0,0,0,44.569,67.75Z" transform="translate(-19.165 -2.5)" fill="#ff8e4c"/></g><g transform="translate(-1783.835 -1073)"><path d="M44.569,67.75,61.959,42.866a4.411,4.411,0,0,0-3.605-6.928H48.386V5.681A3.168,3.168,0,0,0,45.2,2.5H36.722A3.168,3.168,0,0,0,33.54,5.681V35.938H23.573a4.411,4.411,0,0,0-3.605,6.928L37.358,67.75A4.359,4.359,0,0,0,44.569,67.75Z" transform="translate(-19.165 -2.5)" fill="none" stroke="#fff" stroke-width="5"/></g></g></svg>