<svg xmlns="http://www.w3.org/2000/svg" width="57.243" height="72.159" viewBox="0 0 57.243 72.159"><g transform="translate(2.576 2.5)"><g transform="translate(11.069 0)"><path d="M44.569,4.409,61.959,29.293a4.411,4.411,0,0,1-3.605,6.928H48.386V66.478A3.168,3.168,0,0,1,45.2,69.659H36.722a3.168,3.168,0,0,1-3.181-3.181V36.221H23.573a4.411,4.411,0,0,1-3.605-6.928L37.358,4.409A4.359,4.359,0,0,1,44.569,4.409Z" transform="translate(-19.165 -2.5)" fill="#ff8e4c"/></g><g transform="translate(0 0)"><path d="M44.569,4.409,61.959,29.293a4.411,4.411,0,0,1-3.605,6.928H48.386V66.478A3.168,3.168,0,0,1,45.2,69.659H36.722a3.168,3.168,0,0,1-3.181-3.181V36.221H23.573a4.411,4.411,0,0,1-3.605-6.928L37.358,4.409A4.359,4.359,0,0,1,44.569,4.409Z" transform="translate(-19.165 -2.5)" fill="none" stroke="#fff" stroke-width="5"/></g></g></svg>