<svg xmlns="http://www.w3.org/2000/svg" viewBox="0 0 441.21 167.49"><defs><style>.cls-1{fill:#fff;}.cls-2{fill:#ff8f4c;}</style></defs><g id="Layer_2" data-name="Layer 2"><g id="LOGO"><path class="cls-1" d="M400.57,49.84a19.24,19.24,0,1,0,19.24,19.24A19.26,19.26,0,0,0,400.57,49.84Zm0,36.38a17.15,17.15,0,1,1,17.14-17.14A17.16,17.16,0,0,1,400.57,86.22Z"/><path class="cls-1" d="M400.57,28.44a40.84,40.84,0,0,0-38.05,26.35,40.84,40.84,0,0,0-38-26.35,40.4,40.4,0,0,0-37.89,25.91,40.63,40.63,0,0,0-65.91-14.68,40.34,40.34,0,0,0-28-11.23A40.76,40.76,0,0,0,157.33,49l-.64,1.12L180,57.55l.45-.46a17.11,17.11,0,0,1,26.68,2.77H195.19c-3.93,0-7.86,0-11.78.08h-.49c-9.59.11-16.58,2.56-21.38,7.52a24.73,24.73,0,0,0-2,2.4V65.8A35,35,0,0,0,101.2,39.72,35,35,0,0,0,42.89,65.8v40.88H66.33V65.8a11.57,11.57,0,0,1,23.14,0v40.88h23.45V65.8a11.57,11.57,0,0,1,23.14,0v40.88h23.45V98.43a29.94,29.94,0,0,0,13.41,8.68c17.47,5.55,36.07,2.14,47.74-8.66a40.29,40.29,0,0,0,28.05,11.27A40.74,40.74,0,0,0,284,89.15l.64-1.13L261.41,80.6l-.46.47a17.12,17.12,0,0,1-26.68-2.77H284.9a40.8,40.8,0,0,0,39.58,31.42,40.16,40.16,0,0,0,17.15-3.8v18.9a41.34,41.34,0,0,1-.35,5.27,17.11,17.11,0,0,1-25.49,11.53,17.38,17.38,0,0,1-6.17-6.26,17.18,17.18,0,0,1-1.9-5,18.54,18.54,0,0,1-.35-2.68c0-.25,0-2.68,0-2.68-1.25,0-18.2,0-22.46,0h-1a40.49,40.49,0,0,0,1.36,12.49,39.56,39.56,0,0,0,1.24,3.82,40.6,40.6,0,0,0,77.49-5h0a1.74,1.74,0,0,0,0-.22c.08-.3.14-.62.21-.94a63.93,63.93,0,0,0,.89-10.58c0-1.43,0-2.36,0-2.36V89a40.65,40.65,0,1,0,35.45-60.54Zm3.14,79.06A38.5,38.5,0,0,1,365,84.05l-1-2.28A.55.55,0,0,0,363,82V125.3c0,.38,0,2.1-.14,4.11a38.51,38.51,0,0,1-76.94-2.36h19.3a19.21,19.21,0,0,0,38.38,1c.07-1.05.1-2.11.1-3.17V102.52l-1.53.79a38.13,38.13,0,0,1-17.71,4.31A38.7,38.7,0,0,1,286.76,77l-.17-.83H230.77l.77,1.52A19.21,19.21,0,0,0,262,83l19.57,6.24a38.66,38.66,0,0,1-32.85,18.39,38.27,38.27,0,0,1-27.3-11.36l-.73-.74-.74.73c-11.07,10.82-29.27,14.3-46.38,8.86-6-1.9-11.29-5.79-14.22-10.4l-1-1.59a.5.5,0,0,0-.93.27v11.2H138.16V66.2a13.92,13.92,0,0,0-13-14A13.68,13.68,0,0,0,110.82,65.8v38.79H91.57V66.2a13.92,13.92,0,0,0-13-14A13.67,13.67,0,0,0,64.24,65.8v38.79H45V66.37c0-16.94,12.59-31.52,29.43-33.3a32.77,32.77,0,0,1,26.07,8.84l.72.68.72-.68A32.73,32.73,0,0,1,128,33.07c16.84,1.78,29.43,16.36,29.43,33.29v9.08a.53.53,0,0,0,1,.26l1-1.77a22.84,22.84,0,0,1,3.67-5c4.38-4.54,10.89-6.78,19.89-6.88h.49c3.91,0,7.84-.08,11.76-.08H210.6l-.76-1.52a19.22,19.22,0,0,0-30.46-5.26l-19.56-6.24a38.63,38.63,0,0,1,32.85-18.39,38.25,38.25,0,0,1,27.26,11.33l.75.75.74-.75a38.54,38.54,0,0,1,64.17,16l.46,1.51a.57.57,0,0,0,1.09,0l.46-1.51a38.3,38.3,0,0,1,36.88-27.34,38.71,38.71,0,0,1,37,27.87l.48,1.67a.55.55,0,0,0,1.05,0l.48-1.67a38.55,38.55,0,1,1,40.18,49.09Z"/><path class="cls-1" d="M324.48,49.84a19.24,19.24,0,1,0,19.24,19.24A19.26,19.26,0,0,0,324.48,49.84Zm0,36.38a17.15,17.15,0,1,1,17.15-17.14A17.16,17.16,0,0,1,324.48,86.22Z"/><path class="cls-1" d="M248.71,49.84a19.31,19.31,0,0,0-17.4,11.06l-.7,1.5h36.2l-.7-1.5A19.33,19.33,0,0,0,248.71,49.84ZM234,60.3a17.1,17.1,0,0,1,29.41,0Z"/><path class="cls-1" d="M208.62,76.33H195.24c-2.47,0-5.09,0-7.69.26a14.06,14.06,0,0,0-7.07,2.11c-1.94,1.39-3.12,4.15-1.66,6.29a8.19,8.19,0,0,0,5.1,2.9,26.25,26.25,0,0,0,5.67.43,25.85,25.85,0,0,0,8.74-1.45,25,25,0,0,0,3.87-1.72,21.93,21.93,0,0,0,5.15-3.75,11.67,11.67,0,0,0,3-5.07h-1.71Zm-7.43,7a21.6,21.6,0,0,1-3.56,1.58,23.87,23.87,0,0,1-8,1.33,18.94,18.94,0,0,1-6.94-.87,3.4,3.4,0,0,1-2.3-2.14,2.91,2.91,0,0,1,1.35-2.8,12.17,12.17,0,0,1,6-1.73c2.51-.23,5.08-.25,7.5-.25h11.92A17.45,17.45,0,0,1,201.19,83.31Z"/><polygon class="cls-2" points="13.46 30.8 13.46 106.7 26.89 106.7 26.98 106.7 36.89 106.7 36.89 105.37 36.89 104.61 36.89 101.57 36.89 100.8 36.89 97.76 36.89 97 36.89 93.95 36.89 93.19 36.89 90.15 36.89 89.39 36.89 86.34 36.89 85.58 36.89 82.53 36.89 81.77 36.89 78.73 36.89 77.97 36.89 74.92 36.89 74.16 36.89 71.12 36.89 70.36 36.89 67.31 36.89 66.55 36.89 63.5 36.89 62.74 36.89 59.7 36.89 58.94 36.89 55.89 36.89 55.13 36.89 52.09 36.89 51.32 36.89 48.28 36.89 47.52 36.89 44.47 36.89 43.71 36.89 40.67 36.89 39.91 36.89 36.86 36.89 36.1 36.89 33.05 36.89 32.29 36.89 30.8 13.46 30.8"/><path class="cls-2" d="M38.1,10.56c-.06-.3-.15-.6-.23-.89a13.19,13.19,0,0,0-2-4.23A13.5,13.5,0,0,0,34.58,4a13.32,13.32,0,0,0-2.65-2.07A13,13,0,0,0,25.18,0a13.19,13.19,0,1,0,6.76,24.49,12.9,12.9,0,0,0,1.75-1.25c.18-.15.35-.31.52-.47a13.16,13.16,0,0,0,1.76-2l.36-.55a12.65,12.65,0,0,0,1.17-2.36c.08-.21.17-.42.23-.63a12.89,12.89,0,0,0,.57-2.72c0-.24,0-.49,0-.74s0-.37,0-.55A13.4,13.4,0,0,0,38.1,10.56Z"/><path class="cls-1" d="M24.9,104.61V30.8H1.47v75.9H24.9v-2.09ZM22.68,34.82v69.66h-19V33h19Z"/><path class="cls-1" d="M22.21,22.77a12.16,12.16,0,0,0,1.76-2c.13-.18.25-.36.37-.55a13.3,13.3,0,0,0,1.17-2.36c.08-.21.16-.42.23-.63a13.55,13.55,0,0,0,.57-2.72c0-.24,0-.49,0-.74s0-.37,0-.55a13.4,13.4,0,0,0-.26-2.63c-.06-.3-.15-.6-.23-.89a13.19,13.19,0,0,0-2.05-4.23A13.5,13.5,0,0,0,22.59,4a13.32,13.32,0,0,0-2.65-2.07A13.05,13.05,0,0,0,13.19,0,13.19,13.19,0,1,0,20,24.49a12.9,12.9,0,0,0,1.75-1.25C21.88,23.09,22.05,22.93,22.21,22.77Zm-2-1.16c-.18.15-.37.29-.57.43A11.61,11.61,0,0,1,18,23a10.84,10.84,0,0,1-4.78,1.11A11,11,0,1,1,22.77,7.87a10.4,10.4,0,0,1,.52,1.06,10.92,10.92,0,0,1,.83,3.52c0,.25,0,.49,0,.74v.05a10.48,10.48,0,0,1-.39,2.81c-.06.22-.12.44-.19.65a11.13,11.13,0,0,1-1.15,2.38c-.12.19-.25.37-.38.55A10.79,10.79,0,0,1,20.2,21.61Z"/></g></g></svg>