<svg xmlns="http://www.w3.org/2000/svg" viewBox="0 0 101.94 283.69"><defs><style>.cls-1{fill:#ff8f4c;}.cls-2{fill:#fff;}</style></defs><g id="Layer_2" data-name="Layer 2"><g id="Layer_1-2" data-name="Layer 1"><polygon class="cls-1" points="35.68 81.89 35.68 283.69 71.37 283.69 71.63 283.69 97.97 283.69 97.97 280.15 97.97 278.13 97.97 270.04 97.97 268 97.97 259.92 97.97 257.89 97.97 249.79 97.97 247.76 97.97 239.68 97.97 237.66 97.97 229.56 97.97 227.53 97.97 219.44 97.97 217.41 97.97 209.31 97.97 207.28 97.97 199.19 97.97 197.16 97.97 189.07 97.97 187.04 97.97 178.96 97.97 176.93 97.97 168.84 97.97 166.81 97.97 158.72 97.97 156.69 97.97 148.59 97.97 146.56 97.97 138.47 97.97 136.46 97.97 128.35 97.97 126.33 97.97 118.23 97.97 116.22 97.97 108.11 97.97 106.09 97.97 98 97.97 95.97 97.97 87.88 97.97 85.86 97.97 81.89 35.68 81.89"/><path class="cls-1" d="M101.19,28.07c-.17-.8-.39-1.59-.61-2.37a34.74,34.74,0,0,0-5.45-11.25,32.87,32.87,0,0,0-3.31-3.94,35.45,35.45,0,0,0-7-5.5,35,35,0,1,0,0,60.1,36.52,36.52,0,0,0,4.66-3.33c.47-.4.92-.82,1.36-1.24a35.28,35.28,0,0,0,4.68-5.39c.34-.48.65-1,1-1.47a33.76,33.76,0,0,0,3.13-6.28c.21-.56.43-1.11.61-1.67a34.42,34.42,0,0,0,1.5-7.23c.07-.65.08-1.31.1-2,0-.49.08-1,.08-1.48A35.21,35.21,0,0,0,101.19,28.07Z"/><path class="cls-2" d="M66.09,278.14V81.89H3.8v201.8H66.09ZM60.19,92.57V277.8H9.7V87.8H60.19Z"/><path class="cls-2" d="M59,60.54a36.93,36.93,0,0,0,4.68-5.39l1-1.47a35.37,35.37,0,0,0,3.13-6.28c.21-.56.43-1.11.61-1.67a35.07,35.07,0,0,0,1.5-7.23c.06-.65.07-1.31.1-2C70,36,70,35.5,70,35a34.92,34.92,0,0,0-.7-7c-.16-.8-.38-1.59-.6-2.37A34.74,34.74,0,0,0,63.29,14.4,33.69,33.69,0,0,0,53,5a35,35,0,1,0,0,60.1,36.52,36.52,0,0,0,4.66-3.33C58.06,61.38,58.5,61,59,60.54Zm-5.35-3.1c-.49.41-1,.78-1.51,1.15a30.52,30.52,0,0,1-4.43,2.65,28.75,28.75,0,0,1-12.71,3A29.16,29.16,0,0,1,35,5.92a28.7,28.7,0,0,1,12.73,3A29.26,29.26,0,0,1,60.43,21a26.49,26.49,0,0,1,1.39,2.83A28.68,28.68,0,0,1,64,33.18c0,.64.1,1.29.1,1.94v.13a28.83,28.83,0,0,1-1,7.5c-.16.58-.33,1.15-.52,1.72a29.12,29.12,0,0,1-3,6.33c-.32.5-.65,1-1,1.45a29.36,29.36,0,0,1-5,5.19Z"/></g></g></svg>